# xmcd
#
# Track frame offsets:
#	150
#	9918
#	23705
#	37319
#	50715
#	62560
#	72869
#	83733
#	96468
#	108357
#	119454
#	129142
#	142767
#	154755
#	166769
#	179239
#	188594
#
# Disc length: 2646 seconds
#
# Revision: 2
# Processed by: cddbd v1.5.2PL0 Copyright (c) Steve Scherf et al.
# Submitted via: EasyCDDAExtractor 15.2.5.1
#
DISCID=df0a5411
DTITLE=No.1 Hit's Selection 500 - The Great Billboard
DYEAR=1955
DGENRE=AlternRock
TTITLE0=Rock Around The Clock
TTITLE1=The Yellow Rose Of Texas
TTITLE2=Love Is A Many Splenoored Thing
TTITLE3=Autumn Leaves 
TTITLE4=Sixteen Tons 
TTITLE5=Memories Are Made Of This
TTITLE6=Great Pretender
TTITLE7=Rock And Roll Watz
TTITLE8=Lisbon Antigua 
TTITLE9=Poor People In Paris
TTITLE10=Heartbreak Hotel
TTITLE11=The Wayward Wind
TTITLE12=I Almost Lost My Mind
TTITLE13=I Want You,I Need You,I love You
TTITLE14=My Prayer
TTITLE15=Don't Be Cruel
TTITLE16=Green Door
EXTD=
EXTT0=
EXTT1=
EXTT2=
EXTT3=
EXTT4=
EXTT5=
EXTT6=
EXTT7=
EXTT8=
EXTT9=
EXTT10=
EXTT11=
EXTT12=
EXTT13=
EXTT14=
EXTT15=
EXTT16=
PLAYORDER=
